name rise49.25peak52.1432fall72.8391.mot
datacolumns 19
datarows 11
range 9.72996500000000 9.74663100000000
endheader
time	ground_force1_vx	ground_force1_vy	ground_force1_vz	ground_force1_px	ground_force1_py	ground_force1_pz	ground_force2_vx	ground_force2_vy	ground_force2_vz	ground_force2_px	ground_force2_py	ground_force2_pz	ground_torque1_x	ground_torque1_y	ground_torque1_z	ground_torque2_x	ground_torque2_y	ground_torque2_z	
9.72996500000000	-8.64157100000000	41.59127000000000	-10.91465200000000	0.29587200000000	0.00000000000000	0.13151800000000	-49.83414800000000	809.13992399999995	-58.85269000000000	0.11395800000000	0.00000000000000	-0.07533500000000	0.00000000000000	-5.59757200000000	0.00000000000000	0.00000000000000	-18.77687700000000	0.00000000000000	
9.73163100000000	-9.49653500000000	48.71411300000000	-12.26259700000000	0.30053900000000	0.00000000000000	0.13264400000000	-50.91174400000000	807.21582200000000	-58.60635300000000	0.11292300000000	0.00000000000000	-0.07525100000000	0.00000000000000	-6.39202700000000	0.00000000000000	0.00000000000000	-18.78476600000000	0.00000000000000	
9.73329600000000	-10.19344600000000	55.91672700000000	-13.48292300000000	0.30475100000000	0.00000000000000	0.13367400000000	-52.00607400000000	805.14221599999996	-58.33741700000000	0.11188600000000	0.00000000000000	-0.07516500000000	0.00000000000000	-7.14150800000000	0.00000000000000	0.00000000000000	-18.79401000000000	0.00000000000000	
9.73495700000000	-10.70892500000000	63.10518000000000	-14.54647700000000	0.30858400000000	0.00000000000000	0.13462400000000	-53.11580900000000	802.91509199999996	-58.04560000000000	0.11085000000000	0.00000000000000	-0.07507700000000	0.00000000000000	-7.82945300000000	0.00000000000000	0.00000000000000	-18.80445200000000	0.00000000000000	
9.73662900000000	-11.02903700000000	70.20852200000000	-15.43389300000000	0.31209800000000	0.00000000000000	0.13550400000000	-54.23950500000000	800.53043300000002	-57.73064400000000	0.10981400000000	0.00000000000000	-0.07498600000000	0.00000000000000	-8.44399900000000	0.00000000000000	0.00000000000000	-18.81591800000000	0.00000000000000	
9.73829900000000	-11.14916300000000	77.18094800000000	-16.13571500000000	0.31534100000000	0.00000000000000	0.13632400000000	-55.37560300000000	797.98422900000003	-57.39232300000000	0.10877900000000	0.00000000000000	-0.07489300000000	0.00000000000000	-8.97821000000000	0.00000000000000	0.00000000000000	-18.82821700000000	0.00000000000000	
9.73996600000000	-11.07313400000000	84.00152799999999	-16.65168700000000	0.31835300000000	0.00000000000000	0.13709200000000	-56.52242900000000	795.27248999999995	-57.03043800000000	0.10774600000000	0.00000000000000	-0.07479800000000	0.00000000000000	-9.42985000000000	0.00000000000000	0.00000000000000	-18.84113900000000	0.00000000000000	
9.74162600000000	-10.81182300000000	90.67193300000000	-16.98942100000000	0.32116700000000	0.00000000000000	0.13781500000000	-57.67820000000000	792.39125300000001	-56.64482500000000	0.10671600000000	0.00000000000000	-0.07470000000000	0.00000000000000	-9.80082000000000	0.00000000000000	0.00000000000000	-18.85445900000000	0.00000000000000	
9.74329300000000	-10.38140000000000	97.21270000000000	-17.16263700000000	0.32381000000000	0.00000000000000	0.13849600000000	-58.84102400000000	789.33660099999997	-56.23535100000000	0.10568900000000	0.00000000000000	-0.07460000000000	0.00000000000000	-10.09634000000000	0.00000000000000	0.00000000000000	-18.86793400000000	0.00000000000000	
9.74496200000000	-9.80145800000000	103.65859000000000	-17.18921900000000	0.32630400000000	0.00000000000000	0.13914200000000	-60.00890400000000	786.10467200000005	-55.80191900000000	0.10466700000000	0.00000000000000	-0.07449700000000	0.00000000000000	-10.32401000000000	0.00000000000000	0.00000000000000	-18.88130500000000	0.00000000000000	
9.74663100000000	-9.09318400000000	110.05358400000000	-17.08926500000000	0.32866800000000	0.00000000000000	0.13975600000000	-61.17973900000000	782.69167500000003	-55.34447000000000	0.10364900000000	0.00000000000000	-0.07439200000000	0.00000000000000	-10.49283600000000	0.00000000000000	0.00000000000000	-18.89429800000000	0.00000000000000	
